# xmcd
#
# Track frame offsets: 
#        150
#        17526
#        42092
#        65382
#        79803
#        102695
#        125256
#        141315
#        166089
#        184503
#
# Disc length: 2787 seconds
#
# Revision: 0
# Processed by: cddbd v1.5.2PL0 Copyright (c) Steve Scherf et al.
# Submitted via: ExactAudioCopy v1.0b3
#
DISCID=7c0ae10a
DTITLE=Yen Khoa - Canh Cong Rau Dang
DYEAR=2001
DGENRE=
TTITLE0=Co Tam ngay nay
TTITLE1=Canh cong rau dang
TTITLE2=Nho em ly bong mai
TTITLE3=Chuyen tau que huong
TTITLE4=Ve tham que ngoai
TTITLE5=Bong buoi hoa cau
TTITLE6=Khuc nhac dong que
TTITLE7=Chi toi 2
TTITLE8=Ngay da dom bong
TTITLE9=Nho dong song que
EXTD=
EXTT0=
EXTT1=
EXTT2=
EXTT3=
EXTT4=
EXTT5=
EXTT6=
EXTT7=
EXTT8=
EXTT9=
PLAYORDER=
